# xmcd CD database file
#
# Track frame offsets:
#	150
#	17800
#	32623
#	50078
#	66440
#	82786
#	99608
#	117107
#	137028
#	156238
#	168805
#	184830
#	204912
#	222142
#	238468
#	252013
#	266513
#	287155
#	301471
#
# Disc length: 4282 seconds
#
# Revision: 1
# Processed by: cddbd v1.5.1PL0 Copyright (c) Steve Scherf et al.
# Submitted via: Feurio! 1.66 - http://www.feurio.com
#
DISCID=0d10b813
DTITLE=Various Artist - Bravo Hits 27 CD2
DYEAR=1900
DGENRE=Trance
TTITLE0=Echt - Du Tragst Keine Liebe In Dir
TTITLE1=Sixpence None The Richer - Kiss Me
TTITLE2=Christian Wunderlich and Kirstin Hall - Forever Tonight
TTITLE3=In - Mood feat. Juliette - Live Your Life
TTITLE4=Westlife - If I Let You Go
TTITLE5=Shemsi - Say You Will Be Mine
TTITLE6=Lene Marlin - Sitting Down Here
TTITLE7=R.Kelly - Did You Ever Think
TTITLE8=Destiny's Child - Bills,Bills,Bills
TTITLE9=702 - Where My Girls At
TTITLE10=Missy "Misdemeanor" Elliott feat. Mc Solaar - All N My Grill
TTITLE11=Sabrina Setlur - Ich Leb' Fur Dich
TTITLE12=Marc! - I Wanna Be Your Man
TTITLE13=Tom Jones feat. The Cardigans - Burning Down The House
TTITLE14=Five - If Ya Gettin' Down
TTITLE15=Paul Johnson - Get Get Down
TTITLE16=Steps - After The Love Has Gone
TTITLE17=Jan Bros - Hey Baby
TTITLE18=Such A Surge - Tropfen
EXTD=
EXTT0=
EXTT1=
EXTT2=
EXTT3=
EXTT4=
EXTT5=
EXTT6=
EXTT7=
EXTT8=
EXTT9=
EXTT10=
EXTT11=
EXTT12=
EXTT13=
EXTT14=
EXTT15=
EXTT16=
EXTT17=
EXTT18=
PLAYORDER=
